<svg xmlns="http://www.w3.org/2000/svg" xmlns:xlink="http://www.w3.org/1999/xlink" version="1.1" x="0px" y="0px" viewBox="0 0 90 112.5" style="enable-background:new 0 0 90 90;" xml:space="preserve"><g><path d="M72.7729111,43.5043983H71.424408c-0.9926987-2.5351982-2.3282013-4.9191971-4.0102997-7.0805969   c-0.759201-0.9752998-1.577301-1.8857002-2.4383011-2.7418022l6.5091019-4.1438999L65.9731064,26.3076l6.3125-5.3710995H62.1831093   V18.3813c2.4768028-0.470499,4.3574028-2.6445999,4.3574028-5.2563c0-2.9546003-2.4033051-5.3579001-5.3574028-5.3579001   s-5.357399,2.4032998-5.357399,5.3579001c0,2.6117001,1.8806992,4.7858009,4.357399,5.2563v4.5552006h6.6660042   l-4.3164024,3.6728992l5.1171989,2.9990005l-4.1954002,2.6708012c-5.0946007-4.3787022-11.573101-6.8207016-18.4544983-6.8207016   c-6.8516998,0-13.3044014,2.4992008-18.3290024,6.7445984l-3.4927998-3.1796989l3.6646004-2.4286995l-3.8881989-3.6581993h6.862299   V18.3813c2.4766998-0.470499,4.357399-2.6445999,4.357399-5.2563c0-2.9546003-2.4032993-5.3579001-5.357399-5.3579001   s-5.357399,2.4032998-5.357399,5.3579001c0,2.6117001,1.8806,4.7858009,4.357399,5.2563v2.5552006h-9.9062996L23.6343098,26.3223   l-3.7001991,2.4521008l5.2463989,4.7763004c-2.8379993,2.7625008-5.108799,6.1349983-6.604599,9.9536972h-1.3493004   c-4.5611,0-8.2715206,3.7109032-8.2715206,8.2720032c0,4.560997,3.7104206,8.2719002,8.2715206,8.2719002h0.0909996   c2.8773994,12.8988953,14.3731003,22.1846008,27.6824017,22.1846008c13.3089981,0,24.8051949-9.2858047,27.6819954-22.1846008   h0.0909042c4.5610962,0,8.2719955-3.7109032,8.2719955-8.2719002   C81.0449066,47.2153015,77.3340073,43.5043983,72.7729111,43.5043983z M57.8257103,13.125   c0-1.8515997,1.5062981-3.3578997,3.357399-3.3578997s3.3574028,1.5063,3.3574028,3.3578997   c0,1.8511-1.5063019,3.3574009-3.3574028,3.3574009S57.8257103,14.9761,57.8257103,13.125z M25.4595108,13.125   c0-1.8515997,1.5063-3.3578997,3.357399-3.3578997c1.8511009,0,3.357399,1.5063,3.357399,3.3578997   c0,1.8511-1.5062981,3.3574009-3.357399,3.3574009C26.9658108,16.4824009,25.4595108,14.9761,25.4595108,13.125z    M45.0000114,27.4584999c8.1987,0,15.793499,3.7152996,20.8358955,10.1938019   c1.4013062,1.8005981,2.5412064,3.7684975,3.4300995,5.8520966h-48.532196   C24.8520107,33.8546982,34.4174118,27.4584999,45.0000114,27.4584999z M45.0000114,80.2329025   c-12.2209015,0-22.7938023-8.4233017-25.6282005-20.1846008h51.2560959   C67.7941132,71.8098984,57.2211113,80.2329025,45.0000114,80.2329025z M72.7729111,58.0483017H17.2266102   c-3.4580002,0-6.2715006-2.8134003-6.2715006-6.2719002s2.8135004-6.2720032,6.2715006-6.2720032h55.5463028   c3.4584961,0,6.2719955,2.8135033,6.2719955,6.2720032S76.2314072,58.0483017,72.7729111,58.0483017z"/><path d="M56.3423119,70.8520966l-1.4063034-1.4218979c-2.6625977,2.6338043-6.1913986,4.084404-9.935997,4.084404   c-3.7446022,0-7.2734032-1.4505997-9.9360008-4.084404l-1.4062996,1.4218979   c3.0391006,3.0068054,7.0673981,4.6625061,11.3423004,4.6625061S53.3032112,73.858902,56.3423119,70.8520966z"/><path d="M29.7881107,55.7495003h7.9462986v-7.9458008h-7.9462986V55.7495003z M31.7881107,49.8036995h3.9462986v3.9458008   h-3.9462986V49.8036995z"/><path d="M52.2656097,55.7495003h7.9458008v-7.9458008h-7.9458008V55.7495003z M54.2656097,49.8036995h3.9458008v3.9458008   h-3.9458008V49.8036995z"/></g></svg>